# xmcd
#
# Track frame offsets:
#	150
#	14052
#	28935
#	49923
#	68698
#	82236
#	105068
#	129472
#	154845
#	179850
#
# Disc length: 2595 seconds
#
# Revision: 1
# Processed by: cddbd v1.5PL3 Copyright (c) Steve Scherf et al.
# Submitted via: audiograbber 1.82.02
#
DISCID=890a210a
DTITLE=Red Hot And Blues - News About The Blues
DYEAR=2001
DGENRE=Blues
TTITLE0=Not By Man Alone
TTITLE1=99 Pounds
TTITLE2=You Walked Out On Me
TTITLE3=Damn Your Eyes
TTITLE4=Bad Thing
TTITLE5=Where You Been So Long
TTITLE6=Guilty
TTITLE7=Waitin' On The Hurricane
TTITLE8=Last Call For Love
TTITLE9=News About The Blues
EXTD=
EXTT0=
EXTT1=
EXTT2=
EXTT3=
EXTT4=
EXTT5=
EXTT6=
EXTT7=
EXTT8=
EXTT9=
PLAYORDER=
